<mxfile host="app.diagrams.net" modified="2022-08-06T08:50:51.535Z" agent="5.0 (Windows NT 10.0; Win64; x64) AppleWebKit/537.36 (KHTML, like Gecko) Chrome/103.0.0.0 Safari/537.36" etag="RENdR_A81ZnyUbj9bf3_" version="20.2.3" type="github">
  <diagram id="z76gkWZlIva6LxaYH9IE" name="第 1 页">
    <mxGraphModel dx="1422" dy="762" grid="0" gridSize="10" guides="1" tooltips="1" connect="1" arrows="1" fold="1" page="1" pageScale="1" pageWidth="827" pageHeight="1169" math="0" shadow="0">
      <root>
        <mxCell id="0" />
        <mxCell id="1" parent="0" />
        <mxCell id="dg-E_93bXOZpu5lrLbqx-2" value="" style="endArrow=classic;html=1;rounded=0;" edge="1" parent="1">
          <mxGeometry width="50" height="50" relative="1" as="geometry">
            <mxPoint x="185" y="93" as="sourcePoint" />
            <mxPoint x="275" y="93" as="targetPoint" />
          </mxGeometry>
        </mxCell>
        <mxCell id="dg-E_93bXOZpu5lrLbqx-3" value="高地址" style="edgeLabel;html=1;align=center;verticalAlign=middle;resizable=0;points=[];" vertex="1" connectable="0" parent="dg-E_93bXOZpu5lrLbqx-2">
          <mxGeometry x="-0.7111" y="-1" relative="1" as="geometry">
            <mxPoint as="offset" />
          </mxGeometry>
        </mxCell>
        <mxCell id="dg-E_93bXOZpu5lrLbqx-6" value="" style="endArrow=classic;html=1;rounded=0;" edge="1" parent="1">
          <mxGeometry width="50" height="50" relative="1" as="geometry">
            <mxPoint x="222" y="493.75" as="sourcePoint" />
            <mxPoint x="298" y="493.75" as="targetPoint" />
            <Array as="points">
              <mxPoint x="233" y="493.75" />
              <mxPoint x="252" y="493.75" />
            </Array>
          </mxGeometry>
        </mxCell>
        <mxCell id="dg-E_93bXOZpu5lrLbqx-7" value="低地址" style="edgeLabel;html=1;align=center;verticalAlign=middle;resizable=0;points=[];" vertex="1" connectable="0" parent="dg-E_93bXOZpu5lrLbqx-6">
          <mxGeometry x="-0.7111" y="-1" relative="1" as="geometry">
            <mxPoint x="-19" y="-2" as="offset" />
          </mxGeometry>
        </mxCell>
        <mxCell id="dg-E_93bXOZpu5lrLbqx-23" value="" style="shape=table;html=1;whiteSpace=wrap;startSize=0;container=1;collapsible=0;childLayout=tableLayout;" vertex="1" parent="1">
          <mxGeometry x="344" y="91" width="133" height="403.75" as="geometry" />
        </mxCell>
        <mxCell id="dg-E_93bXOZpu5lrLbqx-24" value="" style="shape=tableRow;horizontal=0;startSize=0;swimlaneHead=0;swimlaneBody=0;top=0;left=0;bottom=0;right=0;collapsible=0;dropTarget=0;fillColor=none;points=[[0,0.5],[1,0.5]];portConstraint=eastwest;" vertex="1" parent="dg-E_93bXOZpu5lrLbqx-23">
          <mxGeometry width="133" height="31" as="geometry" />
        </mxCell>
        <mxCell id="dg-E_93bXOZpu5lrLbqx-26" value="" style="shape=partialRectangle;html=1;whiteSpace=wrap;connectable=0;fillColor=none;top=0;left=0;bottom=0;right=0;overflow=hidden;" vertex="1" parent="dg-E_93bXOZpu5lrLbqx-24">
          <mxGeometry width="133" height="31" as="geometry">
            <mxRectangle width="133" height="31" as="alternateBounds" />
          </mxGeometry>
        </mxCell>
        <mxCell id="dg-E_93bXOZpu5lrLbqx-38" style="shape=tableRow;horizontal=0;startSize=0;swimlaneHead=0;swimlaneBody=0;top=0;left=0;bottom=0;right=0;collapsible=0;dropTarget=0;fillColor=none;points=[[0,0.5],[1,0.5]];portConstraint=eastwest;" vertex="1" parent="dg-E_93bXOZpu5lrLbqx-23">
          <mxGeometry y="31" width="133" height="30" as="geometry" />
        </mxCell>
        <mxCell id="dg-E_93bXOZpu5lrLbqx-39" style="shape=partialRectangle;html=1;whiteSpace=wrap;connectable=0;fillColor=none;top=0;left=0;bottom=0;right=0;overflow=hidden;" vertex="1" parent="dg-E_93bXOZpu5lrLbqx-38">
          <mxGeometry width="133" height="30" as="geometry">
            <mxRectangle width="133" height="30" as="alternateBounds" />
          </mxGeometry>
        </mxCell>
        <mxCell id="dg-E_93bXOZpu5lrLbqx-28" value="" style="shape=tableRow;horizontal=0;startSize=0;swimlaneHead=0;swimlaneBody=0;top=0;left=0;bottom=0;right=0;collapsible=0;dropTarget=0;fillColor=none;points=[[0,0.5],[1,0.5]];portConstraint=eastwest;" vertex="1" parent="dg-E_93bXOZpu5lrLbqx-23">
          <mxGeometry y="61" width="133" height="95" as="geometry" />
        </mxCell>
        <mxCell id="dg-E_93bXOZpu5lrLbqx-30" value="参数1&lt;br&gt;...&lt;br&gt;参数n" style="shape=partialRectangle;html=1;whiteSpace=wrap;connectable=0;fillColor=none;top=0;left=0;bottom=0;right=0;overflow=hidden;" vertex="1" parent="dg-E_93bXOZpu5lrLbqx-28">
          <mxGeometry width="133" height="95" as="geometry">
            <mxRectangle width="133" height="95" as="alternateBounds" />
          </mxGeometry>
        </mxCell>
        <mxCell id="dg-E_93bXOZpu5lrLbqx-32" value="" style="shape=tableRow;horizontal=0;startSize=0;swimlaneHead=0;swimlaneBody=0;top=0;left=0;bottom=0;right=0;collapsible=0;dropTarget=0;fillColor=none;points=[[0,0.5],[1,0.5]];portConstraint=eastwest;" vertex="1" parent="dg-E_93bXOZpu5lrLbqx-23">
          <mxGeometry y="156" width="133" height="51" as="geometry" />
        </mxCell>
        <mxCell id="dg-E_93bXOZpu5lrLbqx-34" value="返回地址&lt;br&gt;(test中下一条指令的地址，即0x401976)" style="shape=partialRectangle;html=1;whiteSpace=wrap;connectable=0;fillColor=none;top=0;left=0;bottom=0;right=0;overflow=hidden;" vertex="1" parent="dg-E_93bXOZpu5lrLbqx-32">
          <mxGeometry width="133" height="51" as="geometry">
            <mxRectangle width="133" height="51" as="alternateBounds" />
          </mxGeometry>
        </mxCell>
        <mxCell id="dg-E_93bXOZpu5lrLbqx-40" style="shape=tableRow;horizontal=0;startSize=0;swimlaneHead=0;swimlaneBody=0;top=0;left=0;bottom=0;right=0;collapsible=0;dropTarget=0;fillColor=none;points=[[0,0.5],[1,0.5]];portConstraint=eastwest;" vertex="1" parent="dg-E_93bXOZpu5lrLbqx-23">
          <mxGeometry y="207" width="133" height="88" as="geometry" />
        </mxCell>
        <mxCell id="dg-E_93bXOZpu5lrLbqx-41" style="shape=partialRectangle;html=1;whiteSpace=wrap;connectable=0;fillColor=none;top=0;left=0;bottom=0;right=0;overflow=hidden;" vertex="1" parent="dg-E_93bXOZpu5lrLbqx-40">
          <mxGeometry width="133" height="88" as="geometry">
            <mxRectangle width="133" height="88" as="alternateBounds" />
          </mxGeometry>
        </mxCell>
        <mxCell id="dg-E_93bXOZpu5lrLbqx-36" style="shape=tableRow;horizontal=0;startSize=0;swimlaneHead=0;swimlaneBody=0;top=0;left=0;bottom=0;right=0;collapsible=0;dropTarget=0;fillColor=none;points=[[0,0.5],[1,0.5]];portConstraint=eastwest;" vertex="1" parent="dg-E_93bXOZpu5lrLbqx-23">
          <mxGeometry y="295" width="133" height="109" as="geometry" />
        </mxCell>
        <mxCell id="dg-E_93bXOZpu5lrLbqx-37" style="shape=partialRectangle;html=1;whiteSpace=wrap;connectable=0;fillColor=none;top=0;left=0;bottom=0;right=0;overflow=hidden;" vertex="1" parent="dg-E_93bXOZpu5lrLbqx-36">
          <mxGeometry width="133" height="109" as="geometry">
            <mxRectangle width="133" height="109" as="alternateBounds" />
          </mxGeometry>
        </mxCell>
        <mxCell id="dg-E_93bXOZpu5lrLbqx-44" value="40 Bytes" style="text;html=1;strokeColor=none;fillColor=none;align=center;verticalAlign=middle;whiteSpace=wrap;rounded=0;" vertex="1" parent="1">
          <mxGeometry x="515" y="333.5" width="60" height="30" as="geometry" />
        </mxCell>
        <mxCell id="dg-E_93bXOZpu5lrLbqx-45" value="" style="endArrow=classic;html=1;rounded=0;" edge="1" parent="1">
          <mxGeometry width="50" height="50" relative="1" as="geometry">
            <mxPoint x="244" y="388" as="sourcePoint" />
            <mxPoint x="326" y="388" as="targetPoint" />
            <Array as="points">
              <mxPoint x="299" y="388" />
            </Array>
          </mxGeometry>
        </mxCell>
        <mxCell id="dg-E_93bXOZpu5lrLbqx-47" value="&lt;font style=&quot;font-size: 15px;&quot;&gt;rsp&lt;/font&gt;" style="text;html=1;strokeColor=none;fillColor=none;align=center;verticalAlign=middle;whiteSpace=wrap;rounded=0;" vertex="1" parent="1">
          <mxGeometry x="203" y="369" width="54" height="29" as="geometry" />
        </mxCell>
        <mxCell id="dg-E_93bXOZpu5lrLbqx-50" value="" style="shape=curlyBracket;whiteSpace=wrap;html=1;rounded=1;flipH=1;" vertex="1" parent="1">
          <mxGeometry x="490" y="300" width="20" height="90" as="geometry" />
        </mxCell>
      </root>
    </mxGraphModel>
  </diagram>
</mxfile>
